<svg xmlns="http://www.w3.org/2000/svg" version="1.1" xmlns:xlink="http://www.w3.org/1999/xlink" xmlns:svgjs="http://svgjs.com/svgjs" width="150" height="150"><svg width="150" height="150" viewBox="0 0 150 150" fill="none" xmlns="http://www.w3.org/2000/svg">
<circle cx="75" cy="75" r="75" fill="#002233"></circle>
<mask id="SvgjsMask1000" mask-type="alpha" maskUnits="userSpaceOnUse" x="0" y="0" width="150" height="150">
<circle cx="75" cy="75" r="75" fill="#002233"></circle>
</mask>
<g mask="url(#mask0)">
<path d="M-29 79.127L-23.2428 73.1002C-17.4856 67.1145 -5.97111 55.0609 5.48978 52.396C16.9774 49.7311 28.3848 56.4549 39.8724 62.5226C51.3333 68.5904 62.8478 74.0842 74.3087 77.4871C85.7963 80.8899 97.2037 82.2839 108.691 84.1288C120.152 85.9737 131.667 88.2697 143.128 81.0949C154.615 73.9202 166.023 57.2748 177.51 47.2712C188.971 37.3086 200.486 34.0287 206.243 32.3888L212 30.7488V0H206.243C200.486 0 188.971 0 177.51 0C166.023 0 154.615 0 143.128 0C131.667 0 120.152 0 108.691 0C97.2037 0 85.7963 0 74.3087 0C62.8478 0 51.3333 0 39.8724 0C28.3848 0 16.9774 0 5.48978 0C-5.97111 0 -17.4856 0 -23.2428 0H-29V79.127Z" fill="#0066FF"></path>
</g>
<path d="M53.6484 83.7578V92.4297C53.6484 93.8828 52.9375 94.6094 51.5156 94.6094C49.8594 94.6094 49.0312 93.4766 49.0312 91.2109C49.0312 90.9297 49.0469 90.5312 49.0781 90.0156C49.1094 89.5 49.125 89.1484 49.125 88.9609L49.1016 83.6406L38.7656 83.3828C36.625 83.3828 35.1406 83.3125 34.3125 83.1719C32.8906 82.9375 32.1797 82.3828 32.1797 81.5078C32.1797 80.8047 32.6094 79.9141 33.4688 78.8359L35.4844 76.4453L47.0156 59.6172C48.0625 58.1641 49.3906 57.4375 51 57.4375C52.7656 57.4375 53.6484 58.2031 53.6484 59.7344V79.2109C53.9141 79.1953 54.2344 79.1875 54.6094 79.1875C57.4844 79.1875 58.9219 79.9609 58.9219 81.5078C58.9219 82.6328 58.3281 83.3438 57.1406 83.6406C56.6094 83.7812 55.4453 83.8203 53.6484 83.7578ZM49.1016 63.9297C44.9297 70.5859 41.6719 75.5703 39.3281 78.8828L49.1016 79.1172V63.9297ZM74.6719 94.9141C69.9219 94.9141 66.4531 92.7422 64.2656 88.3984C62.6094 85.0547 61.7812 80.7031 61.7812 75.3438C61.7812 70.8125 62.8594 66.8594 65.0156 63.4844C67.5625 59.5312 71.0234 57.5547 75.3984 57.5547C79.5078 57.5547 82.7109 59.3047 85.0078 62.8047C86.9922 65.8359 87.9844 69.5312 87.9844 73.8906C87.9844 80.8906 86.875 86.1484 84.6562 89.6641C82.4375 93.1641 79.1094 94.9141 74.6719 94.9141ZM75.375 62.0781C72.4688 62.0781 70.1641 63.5547 68.4609 66.5078C67.0391 68.9766 66.3281 71.7969 66.3281 74.9688C66.3281 80.1094 67.0234 83.9688 68.4141 86.5469C69.8047 89.125 71.8906 90.4141 74.6719 90.4141C77.9844 90.4141 80.3594 88.5234 81.7969 84.7422C82.7969 82.1172 83.2969 78.7891 83.2969 74.7578C83.2969 70.5234 82.6328 67.3516 81.3047 65.2422C79.9922 63.1328 78.0156 62.0781 75.375 62.0781ZM112.242 83.7578V92.4297C112.242 93.8828 111.531 94.6094 110.109 94.6094C108.453 94.6094 107.625 93.4766 107.625 91.2109C107.625 90.9297 107.641 90.5312 107.672 90.0156C107.703 89.5 107.719 89.1484 107.719 88.9609L107.695 83.6406L97.3594 83.3828C95.2188 83.3828 93.7344 83.3125 92.9062 83.1719C91.4844 82.9375 90.7734 82.3828 90.7734 81.5078C90.7734 80.8047 91.2031 79.9141 92.0625 78.8359L94.0781 76.4453L105.609 59.6172C106.656 58.1641 107.984 57.4375 109.594 57.4375C111.359 57.4375 112.242 58.2031 112.242 59.7344V79.2109C112.508 79.1953 112.828 79.1875 113.203 79.1875C116.078 79.1875 117.516 79.9609 117.516 81.5078C117.516 82.6328 116.922 83.3438 115.734 83.6406C115.203 83.7812 114.039 83.8203 112.242 83.7578ZM107.695 63.9297C103.523 70.5859 100.266 75.5703 97.9219 78.8828L107.695 79.1172V63.9297Z" fill="white"></path>
</svg></svg>