<svg id="visual" viewBox="0 0 900 600" width="900" height="600" xmlns="http://www.w3.org/2000/svg" xmlns:xlink="http://www.w3.org/1999/xlink" version="1.1"><rect x="0" y="0" width="900" height="600" fill="#002233"></rect><path d="M0 193L21.5 178.3C43 163.7 86 134.3 128.8 127.8C171.7 121.3 214.3 137.7 257.2 152.5C300 167.3 343 180.7 385.8 189C428.7 197.3 471.3 200.7 514.2 205.2C557 209.7 600 215.3 642.8 197.8C685.7 180.3 728.3 139.7 771.2 115.3C814 91 857 83 878.5 79L900 75L900 0L878.5 0C857 0 814 0 771.2 0C728.3 0 685.7 0 642.8 0C600 0 557 0 514.2 0C471.3 0 428.7 0 385.8 0C343 0 300 0 257.2 0C214.3 0 171.7 0 128.8 0C86 0 43 0 21.5 0L0 0Z" fill="#0066FF" stroke-linecap="round" stroke-linejoin="miter"></path></svg>