<?xml version="1.0" standalone="no"?>
<!DOCTYPE svg PUBLIC "-//W3C//DTD SVG 20010904//EN"
 "http://www.w3.org/TR/2001/REC-SVG-20010904/DTD/svg10.dtd">
<svg version="1.0" xmlns="http://www.w3.org/2000/svg"
 width="1840.000000pt" height="1840.000000pt" viewBox="0 0 1840.000000 1840.000000"
 preserveAspectRatio="xMidYMid meet">
<metadata>
Created by potrace 1.14, written by Peter Selinger 2001-2017
</metadata>
<g transform="translate(0.000000,1840.000000) scale(0.100000,-0.100000)"
fill="#000000" stroke="none">
<path d="M3999 13229 c-20 -4 -47 -10 -60 -13 -13 -3 -38 -9 -56 -15 -17 -5
-34 -7 -37 -3 -3 3 -6 0 -6 -7 0 -6 -6 -11 -12 -10 -7 1 -31 -6 -53 -16 -22
-10 -42 -19 -45 -19 -7 -1 -104 -58 -110 -65 -3 -3 -25 -19 -48 -35 -55 -38
-161 -140 -209 -203 -36 -47 -188 -263 -248 -353 -16 -25 -33 -47 -38 -48 -4
-2 -5 -8 -1 -13 3 -5 1 -9 -4 -9 -5 0 -25 -25 -43 -55 -18 -30 -37 -55 -41
-55 -4 0 -8 -4 -8 -10 0 -12 -68 -110 -87 -127 -8 -6 -13 -13 -11 -16 2 -3
-10 -23 -25 -44 -27 -37 -158 -229 -287 -419 -36 -53 -71 -102 -77 -109 -7 -8
-13 -18 -13 -23 0 -5 -9 -17 -20 -27 -11 -10 -20 -24 -20 -32 0 -7 -4 -13 -10
-13 -5 0 -10 -7 -10 -15 0 -8 -4 -15 -8 -15 -5 0 -15 -12 -23 -27 -8 -16 -17
-30 -20 -33 -3 -3 -25 -34 -49 -70 -24 -36 -47 -66 -52 -68 -4 -2 -8 -8 -8
-13 0 -5 -12 -27 -27 -48 -16 -21 -34 -47 -41 -57 -36 -53 -325 -475 -396
-577 -44 -65 -85 -125 -91 -134 -5 -9 -14 -22 -18 -27 -50 -68 -97 -138 -97
-145 0 -6 -6 -14 -13 -18 -6 -4 -18 -20 -26 -35 -8 -15 -22 -37 -33 -47 -10
-11 -18 -23 -18 -26 0 -5 -78 -117 -98 -140 -5 -6 -11 -15 -13 -21 -8 -19
-203 -299 -211 -302 -4 -2 -8 -8 -8 -13 0 -10 -104 -164 -126 -187 -7 -6 -16
-21 -19 -32 -3 -11 -10 -20 -15 -20 -5 0 -12 -9 -15 -20 -3 -11 -12 -26 -19
-33 -7 -7 -26 -33 -41 -57 -39 -62 -127 -178 -164 -217 -17 -18 -31 -37 -31
-42 0 -5 -4 -11 -9 -13 -4 -1 -70 -77 -147 -168 -76 -91 -141 -167 -144 -170
-28 -26 -205 -280 -194 -280 2 0 -6 -17 -20 -38 -72 -115 -99 -301 -57 -394
47 -103 178 -184 361 -224 19 -4 37 -8 40 -9 11 -3 108 -16 150 -20 156 -17
327 -24 715 -30 165 -2 404 -7 530 -11 127 -3 301 -7 387 -7 87 -1 158 -4 158
-7 0 -3 82 -6 183 -6 155 -2 443 -8 862 -19 55 -2 123 -3 150 -4 l50 -1 2
-288 c2 -158 3 -298 2 -312 -4 -140 -2 -270 4 -270 5 0 5 -5 1 -11 -6 -11 -7
-111 -2 -212 2 -26 1 -47 -2 -47 -3 0 -6 -37 -7 -83 -1 -45 -4 -181 -7 -302
-3 -160 -1 -245 9 -310 43 -281 167 -440 378 -489 114 -26 255 -18 357 22 14
5 27 9 30 8 16 -4 152 132 144 145 -3 5 -1 9 4 9 5 0 17 28 27 63 9 34 21 74
26 89 5 17 4 30 -2 34 -6 3 -6 11 -1 17 4 7 8 438 8 960 l-1 947 25 1 c14 1
36 1 50 1 38 -2 83 -2 105 -1 11 0 90 0 175 0 85 0 175 2 200 4 25 3 70 7 100
9 76 5 211 52 279 96 94 61 162 159 175 250 1 9 5 20 8 25 3 6 6 47 6 93 1
117 -32 207 -101 280 -71 76 -139 114 -277 158 -30 9 -62 19 -70 22 -8 3 -18
5 -22 4 -4 -1 -29 2 -55 7 -71 14 -160 24 -230 26 -35 1 -65 4 -69 7 -3 4 -19
2 -35 -2 -16 -5 -31 -5 -34 0 -3 4 -20 4 -39 0 -18 -4 -40 -3 -49 1 -9 5 -18
6 -20 2 -4 -6 -90 -9 -117 -4 -3 1 -5 952 -6 2114 -1 1161 -4 2130 -8 2152
-18 101 -58 181 -122 241 -46 43 -150 99 -201 107 -18 3 -37 8 -44 12 -17 11
-307 14 -350 4z m-244 -3001 l0 -1612 -55 1 c-30 0 -172 4 -315 7 -143 4 -335
8 -427 9 -93 1 -168 5 -168 9 0 4 -11 3 -24 -2 -13 -5 -26 -7 -29 -4 -2 3 -89
7 -193 9 -104 2 -310 7 -459 11 -148 3 -303 7 -342 7 l-73 1 17 26 c9 14 29
41 45 61 15 20 28 42 28 48 0 6 3 11 8 11 4 0 23 25 42 55 19 30 38 55 43 55
4 0 7 4 7 10 0 10 55 94 77 117 6 7 15 22 18 33 3 11 10 20 15 20 5 0 12 9 15
20 3 11 12 26 19 32 11 12 86 119 111 160 6 9 71 108 146 220 218 326 319 481
319 490 0 4 5 8 10 8 6 0 10 4 10 10 0 8 56 96 70 110 9 9 30 44 39 66 5 11
15 27 23 35 7 8 40 57 73 109 32 52 63 97 67 98 4 2 8 8 8 13 0 5 16 32 35 59
19 27 35 52 35 55 0 9 94 150 103 153 4 2 7 8 7 12 0 5 34 61 75 124 41 63 75
119 75 125 0 5 3 11 8 13 7 3 82 114 82 122 0 3 27 45 60 95 33 50 60 95 60
101 0 5 5 10 10 10 6 0 10 7 10 15 0 8 4 15 9 15 5 0 11 8 15 18 3 9 35 62 70
117 35 55 97 153 137 218 40 64 76 117 79 117 3 0 5 -726 5 -1612z"/>
<path d="M16539 13235 c-3 -2 -25 -6 -50 -9 -209 -25 -485 -194 -626 -384 -15
-20 -31 -39 -34 -42 -4 -4 -132 -189 -181 -264 -7 -10 -23 -31 -35 -46 -13
-15 -23 -33 -23 -39 0 -6 -4 -11 -10 -11 -5 0 -10 -7 -10 -15 0 -7 -6 -18 -13
-22 -6 -4 -18 -20 -26 -35 -8 -15 -22 -37 -33 -47 -10 -11 -18 -25 -18 -31 0
-5 -3 -10 -8 -10 -4 0 -12 -8 -17 -19 -15 -28 -213 -319 -225 -331 -3 -3 -31
-43 -62 -90 -31 -47 -83 -123 -115 -170 -33 -47 -85 -123 -116 -170 -72 -106
-89 -130 -105 -147 -7 -7 -11 -13 -7 -13 3 0 -12 -24 -34 -53 -21 -29 -55 -78
-75 -108 -19 -30 -50 -74 -67 -99 -40 -57 -182 -265 -240 -350 -24 -36 -46
-67 -49 -70 -3 -3 -19 -26 -35 -52 -17 -27 -33 -48 -37 -48 -5 0 -8 -4 -8 -9
0 -5 -45 -75 -100 -155 -55 -79 -100 -147 -100 -150 0 -3 -9 -16 -20 -28 -10
-13 -59 -81 -108 -153 -48 -71 -119 -175 -157 -230 -38 -55 -91 -134 -119
-175 -28 -41 -53 -77 -56 -80 -3 -3 -19 -26 -35 -52 -17 -27 -33 -48 -37 -48
-5 0 -8 -4 -8 -9 0 -8 -75 -124 -107 -166 -4 -6 -23 -33 -42 -60 -27 -40 -209
-264 -231 -285 -3 -3 -52 -61 -109 -130 -58 -69 -113 -133 -123 -143 -10 -10
-18 -21 -18 -25 0 -4 -10 -18 -23 -32 -45 -48 -130 -184 -173 -275 -47 -100
-71 -193 -68 -268 3 -50 38 -138 70 -173 42 -45 176 -121 234 -131 14 -2 43
-9 65 -15 22 -5 49 -12 60 -13 94 -16 129 -20 246 -29 20 -2 41 -6 47 -10 7
-4 12 -2 12 4 0 6 4 9 10 5 13 -8 198 -15 520 -20 151 -2 397 -7 545 -10 149
-4 320 -8 382 -9 62 -1 115 -5 119 -9 4 -3 14 -2 24 3 10 5 19 7 22 5 3 -3
106 -7 229 -10 123 -3 319 -7 434 -10 116 -3 293 -7 394 -10 118 -2 186 -7
191 -14 8 -13 4 -1374 -5 -1481 -3 -41 -6 -79 -6 -85 -1 -5 2 -62 5 -125 5
-115 16 -187 38 -264 6 -23 12 -43 13 -46 3 -18 61 -130 67 -130 5 0 8 -5 8
-10 0 -18 54 -71 110 -110 52 -35 72 -45 117 -55 10 -3 38 -9 63 -16 52 -12
275 -4 275 11 0 1 8 3 18 5 32 6 90 37 130 67 71 57 119 151 134 268 4 25 7
474 7 997 1 839 3 953 16 954 16 2 51 2 145 -1 33 -1 65 -1 70 0 6 1 15 1 20
0 30 -6 65 -5 65 3 0 4 5 5 11 1 18 -11 201 -4 325 11 119 16 204 44 281 94
132 85 191 203 191 378 0 80 -6 108 -43 189 -40 87 -175 192 -295 229 -27 8
-99 28 -115 32 -97 21 -221 36 -317 37 -38 1 -68 3 -68 6 0 6 -95 4 -139 -3
-17 -3 -33 -1 -37 4 -3 5 -13 5 -22 1 -9 -5 -33 -8 -52 -8 l-35 1 -1 2130 c-2
2346 3 2185 -61 2295 -52 89 -177 179 -270 193 -17 3 -37 8 -44 13 -13 7 -303
16 -310 9z m-284 -3008 l0 -1613 -65 2 c-105 4 -601 16 -771 18 -86 2 -162 7
-169 11 -9 6 -11 4 -5 -5 5 -9 4 -11 -4 -6 -6 4 -91 9 -189 11 -527 11 -865
20 -881 24 -3 1 4 11 15 24 31 34 94 126 94 136 0 5 4 11 8 13 4 2 28 32 52
68 25 36 48 67 53 68 4 2 7 10 7 18 0 8 4 14 9 14 5 0 12 8 15 18 4 10 14 27
24 38 9 10 23 31 31 46 8 15 22 37 33 47 10 11 18 25 18 31 0 5 5 10 10 10 6
0 10 7 10 15 0 8 3 15 8 15 4 0 16 16 26 35 11 19 23 35 28 35 4 0 8 5 8 10 0
12 99 161 113 171 5 3 8 10 8 15 0 5 9 19 19 32 11 12 20 25 20 28 0 6 61 97
70 104 4 3 9 12 13 20 8 18 271 420 286 437 6 7 11 17 11 23 0 5 5 10 10 10 6
0 10 5 10 10 0 9 88 149 101 160 3 3 8 12 12 20 8 18 30 53 37 60 13 12 130
202 130 211 0 5 4 9 8 9 4 0 16 15 27 33 10 17 42 68 70 112 29 44 80 125 115
180 34 55 67 102 71 103 5 2 9 8 9 14 0 6 15 34 33 62 84 128 111 172 109 179
-1 4 2 7 8 7 6 0 10 7 10 15 0 8 4 15 9 15 5 0 14 14 21 30 7 17 16 30 21 30
5 0 9 4 9 10 0 5 17 36 37 67 21 32 42 66 48 75 54 93 181 288 188 288 1 0 2
-726 2 -1613z"/>
<path d="M9207 13214 c-1 -1 -33 -4 -72 -8 -163 -16 -183 -18 -245 -31 -13 -2
-42 -7 -64 -11 -22 -3 -43 -7 -47 -9 -3 -2 -19 -7 -35 -9 -48 -9 -230 -63
-253 -75 -11 -7 -21 -10 -21 -7 0 13 -317 -136 -370 -174 -17 -12 -30 -18 -30
-13 0 4 -4 4 -8 -2 -9 -13 -69 -55 -78 -55 -7 0 -132 -90 -169 -121 -164 -139
-250 -221 -340 -320 -60 -66 -191 -232 -235 -295 -197 -287 -345 -565 -465
-874 -58 -150 -139 -401 -161 -501 -2 -10 -6 -27 -8 -36 -10 -38 -48 -209 -52
-233 -3 -14 -9 -47 -14 -75 -5 -27 -12 -68 -15 -90 -3 -23 -7 -50 -9 -61 -2
-12 -7 -45 -11 -75 -3 -30 -8 -65 -10 -79 -22 -153 -46 -682 -31 -697 3 -3 1
-13 -4 -23 -5 -10 -7 -20 -4 -23 3 -3 7 -88 9 -189 3 -100 7 -221 10 -268 3
-47 8 -112 10 -145 5 -81 14 -179 20 -240 10 -95 17 -150 20 -175 2 -14 7 -47
10 -75 3 -27 7 -61 10 -75 3 -14 7 -43 10 -65 2 -22 7 -51 10 -65 3 -14 8 -41
10 -60 3 -19 12 -66 20 -105 8 -38 17 -82 19 -98 3 -15 7 -35 10 -45 3 -9 8
-29 11 -44 3 -16 7 -38 10 -50 3 -13 7 -33 9 -46 3 -12 7 -26 10 -30 3 -5 7
-19 10 -33 3 -13 10 -44 17 -69 6 -25 12 -49 13 -55 3 -17 77 -248 89 -280 7
-16 12 -33 13 -37 1 -5 3 -10 4 -13 1 -3 3 -8 4 -12 1 -5 7 -17 13 -28 6 -11
12 -24 13 -30 16 -69 143 -346 222 -483 26 -46 48 -88 48 -93 0 -5 5 -9 10 -9
6 0 10 -5 10 -11 0 -6 20 -40 45 -76 25 -35 45 -68 45 -73 0 -6 4 -10 10 -10
5 0 16 -12 24 -27 8 -16 25 -40 39 -55 14 -16 30 -34 34 -42 27 -48 193 -220
303 -316 41 -36 77 -67 80 -70 3 -3 12 -9 21 -15 9 -5 45 -30 80 -55 98 -69
123 -84 274 -159 122 -61 223 -103 275 -116 8 -2 34 -10 58 -19 23 -8 42 -13
42 -9 0 3 7 0 15 -7 8 -7 15 -10 15 -7 0 3 21 -2 48 -10 26 -8 62 -16 80 -19
18 -2 65 -10 105 -18 40 -8 79 -14 87 -14 8 0 29 -2 45 -6 110 -23 609 -24
720 -2 11 2 43 7 70 10 28 4 61 8 75 11 14 3 39 7 55 10 88 15 226 49 325 81
8 3 16 5 17 5 2 0 41 15 87 33 47 19 87 31 90 28 4 -3 6 0 6 6 0 7 9 12 19 12
11 0 21 3 23 8 2 4 28 18 58 32 107 48 326 188 430 274 83 70 307 307 373 396
43 58 82 111 88 118 18 22 154 254 183 312 15 30 31 62 35 70 35 66 41 80 34
80 -4 0 -3 4 3 8 5 4 30 54 53 112 24 58 47 114 52 125 25 60 136 406 143 450
1 6 5 16 9 23 5 6 6 12 3 12 -2 0 0 15 5 33 6 17 12 39 14 47 2 8 11 47 20 85
9 39 19 81 21 95 2 14 9 45 14 70 6 25 12 59 15 75 2 17 8 53 14 80 6 28 13
61 15 75 2 14 7 41 10 60 16 100 22 140 30 211 3 25 7 59 10 75 3 16 8 61 12
99 3 39 8 84 10 100 2 17 6 53 8 80 2 28 7 86 11 130 36 439 41 1157 10 1475
-8 81 -17 157 -21 185 -3 17 -7 45 -10 64 -5 43 -18 116 -29 171 -3 14 -12 61
-21 105 -8 44 -22 101 -29 128 -8 26 -14 49 -15 52 0 3 0 6 -1 8 0 1 -2 13 -5
27 -2 14 -9 36 -14 50 -5 14 -11 34 -13 45 -1 11 -5 25 -8 30 -4 6 -10 24 -14
40 -12 45 -12 45 -15 48 -1 1 -3 9 -5 17 -7 28 -55 162 -62 173 -4 7 -8 15 -9
20 -1 4 -3 9 -4 12 -1 3 -3 8 -4 13 -1 4 -12 29 -24 56 -12 27 -22 52 -22 55
0 4 -37 81 -83 172 -82 161 -211 381 -228 387 -5 2 -9 8 -9 14 0 12 -89 131
-102 136 -4 2 -8 8 -8 14 0 6 -24 38 -52 71 -29 34 -62 72 -73 85 -26 31 -178
179 -230 224 -109 93 -255 195 -370 257 -33 18 -64 37 -70 41 -5 5 -14 8 -18
8 -4 0 -27 9 -50 20 -98 47 -233 96 -342 126 -150 40 -187 48 -290 60 -27 4
-60 9 -72 11 -52 12 -484 28 -496 19z m385 -977 c21 -3 55 -8 75 -12 21 -4 49
-9 63 -11 35 -7 168 -44 199 -56 113 -45 265 -126 322 -172 14 -12 42 -34 62
-49 68 -53 197 -189 197 -207 0 -6 4 -10 9 -10 12 0 151 -209 151 -226 0 -7 4
-14 8 -16 12 -5 88 -167 132 -283 78 -205 157 -531 185 -765 3 -25 8 -56 10
-70 2 -14 6 -56 10 -95 3 -38 8 -88 11 -109 24 -198 24 -1085 0 -1291 -3 -22
-8 -74 -12 -115 -3 -41 -8 -91 -10 -110 -2 -19 -6 -57 -9 -85 -5 -49 -12 -102
-19 -140 -4 -25 -15 -98 -21 -149 -3 -21 -7 -41 -9 -45 -3 -3 -7 -25 -10 -47
-8 -52 -12 -74 -32 -160 -8 -39 -17 -79 -19 -90 -2 -10 -4 -20 -4 -21 -1 -2
-1 -5 -2 -8 0 -2 -5 -19 -10 -37 -6 -18 -12 -42 -14 -53 -8 -37 -53 -179 -89
-285 -20 -58 -38 -109 -40 -115 -2 -5 -8 -23 -14 -38 -7 -16 -12 -33 -12 -38
0 -5 -4 -9 -8 -9 -5 0 -9 -6 -9 -13 0 -25 -172 -363 -192 -377 -4 -3 -18 -23
-31 -45 -13 -22 -28 -44 -32 -50 -5 -5 -27 -35 -50 -65 -43 -55 -187 -204
-243 -250 -60 -49 -104 -80 -114 -80 -6 0 -11 -3 -11 -8 0 -4 -17 -16 -37 -27
-21 -10 -46 -26 -57 -35 -10 -8 -19 -14 -20 -12 0 2 -31 -11 -69 -28 -80 -36
-210 -80 -252 -84 -16 -2 -37 -6 -45 -9 -104 -37 -469 -40 -617 -6 -26 6 -59
13 -73 15 -14 3 -34 8 -45 11 -11 4 -27 7 -35 8 -25 3 -222 85 -265 110 -22
13 -58 33 -79 45 -21 12 -51 33 -65 46 -14 13 -29 24 -32 24 -3 0 -17 10 -31
23 -13 12 -45 41 -70 64 -91 83 -268 302 -268 332 0 6 -4 11 -10 11 -5 0 -10
6 -10 14 0 8 -4 16 -8 18 -20 8 -211 418 -195 418 3 0 1 6 -5 13 -9 11 -79
227 -98 302 -4 17 -8 35 -10 40 -2 6 -6 21 -9 35 -3 14 -7 30 -9 35 -2 10 -20
93 -32 150 -9 48 -22 117 -29 159 -4 21 -9 48 -11 60 -2 11 -7 37 -9 56 -3 19
-7 49 -10 65 -8 52 -15 118 -20 170 -2 28 -5 50 -5 50 -4 0 -8 40 -14 125 -4
52 -9 120 -12 150 -15 178 -29 1002 -16 1024 3 5 7 28 8 50 3 48 12 138 20
198 8 63 22 144 44 253 5 28 11 59 13 70 5 29 18 77 24 95 6 15 8 24 16 65 2
11 7 27 10 35 3 8 15 47 27 85 20 65 52 154 71 200 5 11 18 44 29 74 29 76
142 303 189 381 22 36 47 80 57 98 9 17 20 32 25 32 5 0 9 5 9 10 0 10 36 67
50 80 3 3 17 21 30 40 59 85 160 193 292 315 91 83 294 206 434 262 33 13 158
52 189 59 72 15 114 22 173 28 18 2 35 6 38 9 6 6 352 0 406 -6z"/>
</g>
</svg>
